M48
; DRILL file {KiCad 8.0.5} date 2024-11-23T22:59:04+0700
; FORMAT={3:3/ absolute / metric / suppress leading zeros}
; #@! TF.CreationDate,2024-11-23T22:59:04+07:00
; #@! TF.GenerationSoftware,Kicad,Pcbnew,8.0.5
; #@! TF.FileFunction,MixedPlating,1,4
FMAT,2
METRIC,TZ
; #@! TA.AperFunction,Plated,PTH,ViaDrill
T1C0.300
; #@! TA.AperFunction,Plated,PTH,ComponentDrill
T2C0.300
; #@! TA.AperFunction,Plated,PTH,ComponentDrill
T3C0.600
; #@! TA.AperFunction,Plated,PTH,ComponentDrill
T4C0.650
; #@! TA.AperFunction,Plated,PTH,ComponentDrill
T5C0.700
; #@! TA.AperFunction,Plated,PTH,ComponentDrill
T6C1.000
; #@! TA.AperFunction,Plated,PTH,ComponentDrill
T7C1.200
; #@! TA.AperFunction,Plated,PTH,ComponentDrill
T8C1.400
; #@! TA.AperFunction,Plated,PTH,ComponentDrill
T9C4.300
%
G90
G05
T1
X55255Y-80170
X55355Y-126545
X55480Y-102745
X55505Y-150270
X57730Y-82395
X57830Y-128770
X57955Y-104970
X57980Y-152495
X58330Y-110095
X59155Y-133795
X59180Y-87345
X60255Y-156220
X63053Y-134080
X63087Y-110080
X63170Y-154015
X63382Y-87470
X64730Y-156820
X65278Y-136105
X65287Y-112130
X65441Y-127943
X65470Y-147640
X65607Y-89495
X65855Y-160045
X67350Y-161180
X67470Y-106090
X67780Y-181795
X68030Y-160070
X68032Y-83320
X68630Y-155220
X69520Y-161180
X69570Y-80384
X69570Y-82441
X69570Y-84499
X69580Y-78440
X69600Y-88474
X69600Y-90531
X69600Y-92589
X69600Y-94646
X69600Y-96703
X69610Y-86530
X69640Y-104504
X69640Y-106561
X69640Y-108619
X69640Y-110676
X69640Y-112733
X69650Y-98760
X69650Y-100710
X69680Y-120704
X69680Y-122761
X69680Y-124819
X69680Y-126876
X69680Y-128933
X69690Y-114790
X69690Y-116740
X69690Y-118760
X69730Y-130990
X69730Y-132940
X69730Y-135041
X69730Y-137099
X69730Y-139156
X69730Y-141213
X69780Y-143270
X69780Y-145301
X69780Y-147359
X69780Y-149416
X69780Y-151473
X69830Y-153530
X70255Y-180370
X70280Y-184745
X70955Y-154795
X71420Y-66686
X71420Y-68743
X71420Y-70800
X71450Y-78751
X71450Y-80809
X71450Y-82866
X71460Y-76807
X71470Y-72857
X71470Y-74807
X71480Y-86841
X71480Y-88899
X71480Y-90956
X71480Y-93013
X71480Y-95070
X71490Y-84897
X71530Y-97127
X71530Y-99077
X72000Y-161180
X72390Y-113197
X72390Y-115254
X72430Y-121410
X72430Y-123467
X72430Y-125524
X72430Y-129639
X72430Y-131696
X72430Y-133753
X72440Y-119331
X72480Y-135810
X72480Y-141944
X72480Y-144001
X72480Y-146059
X72480Y-148116
X72480Y-150173
X72490Y-140000
X72530Y-152230
X72530Y-154180
X72600Y-156690
X72805Y-100420
X73890Y-159780
X73985Y-101610
X74943Y-110245
X75305Y-102995
X75710Y-158560
X76655Y-88490
X77198Y-110245
X77220Y-117290
X77240Y-136910
X77280Y-130730
X77280Y-156750
X77305Y-119580
X77305Y-122830
X77305Y-125540
X77310Y-145900
X77310Y-151010
X77320Y-129240
X77638Y-158550
X77715Y-76625
X77725Y-103020
X77725Y-101055
X78265Y-88475
X78670Y-113880
X79130Y-110245
X79340Y-76620
X79570Y-158550
X79980Y-103020
X80230Y-150895
X80750Y-100030
X81008Y-111020
X81205Y-153795
X81220Y-118880
X81230Y-152445
X81330Y-122860
X81330Y-132240
X81380Y-149570
X81850Y-112290
X81928Y-102690
X82205Y-138970
X82280Y-141395
X82630Y-119645
X82940Y-111020
X83710Y-156780
X83801Y-158540
X83860Y-102690
X84030Y-113220
X84125Y-118850
X84180Y-145170
X84630Y-109995
X84630Y-111020
X85180Y-146720
X85505Y-119620
X85730Y-158530
X85791Y-102690
X86210Y-132240
X86390Y-97990
X86455Y-184895
X86480Y-180370
X86705Y-138970
X86780Y-88045
X86780Y-90340
X86830Y-82720
X86855Y-84920
X87455Y-104520
X87480Y-118870
X87661Y-158530
X87820Y-102700
X87920Y-93555
X88010Y-111020
X88790Y-99260
X88910Y-119670
X88930Y-182595
X89010Y-97190
X89310Y-103040
X89593Y-158530
X89630Y-111020
X89705Y-86095
X89730Y-89245
X89805Y-105395
X89830Y-84995
X89860Y-100350
X89880Y-104370
X90455Y-149245
X90505Y-118895
X90555Y-88045
X90710Y-122860
X90710Y-125670
X90710Y-128430
X90710Y-132240
X90820Y-101300
X90830Y-111020
X91405Y-148270
X91525Y-158530
X91605Y-149220
X91930Y-119670
X92000Y-115690
X92380Y-76545
X92555Y-150020
X92640Y-92440
X92800Y-147115
X93380Y-118570
X93380Y-120627
X93380Y-122684
X93380Y-124741
X93380Y-126799
X93380Y-128856
X93380Y-130913
X93456Y-158530
X93610Y-115410
X93855Y-104220
X93880Y-105220
X94030Y-111220
X94030Y-112095
X94050Y-132620
X94430Y-131420
X94435Y-135550
X94480Y-118920
X94700Y-91580
X94790Y-114060
X94800Y-113160
X94810Y-115080
X94905Y-76520
X95380Y-132970
X95388Y-158530
X95430Y-108920
X95600Y-134230
X95617Y-131683
X96330Y-139370
X96930Y-91595
X97055Y-130445
X97230Y-141570
X97255Y-68770
X97280Y-140470
X97320Y-158530
X97405Y-69995
X97405Y-131870
X97430Y-76520
X97480Y-100220
X97530Y-118870
X97980Y-111220
X98005Y-96445
X98030Y-119720
X98405Y-142795
X98505Y-97370
X98655Y-182520
X98730Y-100220
X98905Y-122645
X99030Y-119745
X99230Y-111220
X99240Y-158540
X99405Y-98120
X99590Y-123160
X99955Y-76495
X100090Y-90420
X100270Y-156795
X100280Y-129045
X100400Y-142900
X100410Y-145160
X100410Y-146990
X100480Y-96595
X100480Y-97420
X100600Y-124640
X100880Y-127545
X101105Y-180295
X101130Y-184670
X101171Y-158540
X101270Y-90440
X101555Y-124370
X101720Y-118960
X101805Y-92270
X101880Y-88040
X101980Y-129820
X102030Y-96570
X102030Y-97420
X102155Y-142795
X102330Y-121895
X102355Y-123120
X102530Y-76545
X102655Y-131720
X102840Y-87860
X102905Y-148630
X103030Y-97895
X103100Y-158530
X103130Y-126395
X103730Y-100220
X103980Y-124920
X104005Y-96520
X104030Y-97420
X104090Y-156795
X104110Y-146145
X104230Y-111220
X104497Y-86820
X104630Y-142720
X104980Y-100220
X104980Y-119520
X105005Y-97795
X105031Y-158530
X105055Y-76520
X105170Y-128620
X105305Y-148520
X105355Y-118145
X105430Y-86495
X105480Y-111220
X105655Y-130395
X105950Y-91180
X106055Y-120720
X106963Y-158530
X106980Y-92430
X107190Y-156795
X107280Y-140740
X107580Y-76545
X107605Y-130270
X107730Y-110220
X107755Y-111070
X108150Y-102010
X108210Y-102920
X108260Y-100140
X108605Y-137545
X108755Y-114945
X108895Y-158530
X109360Y-134970
X109405Y-97795
X109455Y-110120
X109480Y-110970
X109555Y-96770
X109655Y-98945
X109730Y-100920
X110105Y-76520
X110405Y-119895
X110410Y-105540
X110430Y-103300
X110430Y-104450
X110826Y-158530
X110955Y-114620
X111155Y-98695
X111530Y-99720
X111655Y-120995
X111820Y-134980
X111990Y-104160
X112380Y-98495
X112555Y-110995
X112605Y-122320
X112655Y-76545
X112758Y-158530
X112780Y-93595
X113005Y-148870
X113080Y-92720
X113250Y-128345
X113260Y-130545
X113780Y-153570
X114005Y-117845
X114105Y-147520
X114220Y-134970
X114555Y-140495
X114690Y-158530
X114755Y-145595
X114930Y-154920
X115067Y-88490
X115130Y-90490
X115130Y-138570
X115205Y-76520
X115705Y-136920
X116255Y-132995
X116430Y-114245
X116460Y-130250
X116730Y-109620
X116805Y-104645
X117205Y-93645
X117305Y-184820
X117330Y-180295
X117931Y-133560
X117950Y-95595
X118430Y-100245
X118450Y-98200
X118610Y-93260
X118817Y-119757
X118905Y-115220
X119080Y-135995
X119155Y-144295
X119330Y-154345
X119340Y-127320
X119355Y-118295
X119780Y-182520
X119863Y-133560
X119880Y-92945
X119910Y-98200
X120070Y-158530
X120405Y-102395
X121230Y-100195
X121655Y-136095
X121795Y-133560
X121816Y-127170
X122055Y-153795
X122291Y-158520
X122400Y-102330
X122555Y-95445
X122830Y-182445
X123340Y-102850
X123605Y-97945
X123655Y-153720
X123726Y-133560
X123748Y-127170
X124223Y-158520
X124405Y-146095
X124670Y-156795
X124705Y-152870
X125280Y-180220
X125305Y-184595
X125555Y-146095
X125658Y-133560
X125680Y-95845
X125680Y-127170
X126155Y-158520
X126880Y-91170
X127590Y-133560
X127611Y-127170
X128605Y-92920
X128955Y-89070
X129543Y-127170
X129800Y-135250
X130680Y-90820
X130905Y-87120
X131470Y-138650
X131470Y-140582
X131470Y-142513
X131475Y-127170
X131480Y-136980
X131950Y-158520
X132630Y-88870
X132980Y-85020
X133345Y-143200
X133406Y-127170
X133881Y-158520
X134105Y-147945
X134705Y-86770
X135173Y-127170
X135480Y-143200
X135810Y-158510
X135830Y-84720
X136555Y-152060
X137105Y-127170
X137615Y-143200
X137741Y-158510
X137835Y-132345
X138205Y-84720
X138205Y-86770
X138330Y-127920
X138730Y-134082
X139030Y-101420
X139100Y-130040
X139673Y-158510
X139680Y-143195
X140825Y-141900
X140830Y-102820
X141230Y-150245
X141455Y-84720
X141455Y-86770
X141480Y-184745
X141505Y-180220
X141605Y-158510
X142700Y-139520
X142730Y-141650
X142855Y-152170
X143280Y-121345
X143536Y-158510
X143955Y-182445
X144000Y-129295
X144105Y-123720
X144631Y-139520
X144661Y-141650
X144955Y-84720
X144955Y-86770
X145005Y-119870
X145050Y-136395
X145200Y-127920
X145205Y-125045
X145230Y-145980
X145380Y-151395
X145468Y-158510
X146563Y-139520
X146575Y-138220
X146593Y-141650
X146730Y-150270
X147400Y-158510
X147820Y-145970
X148030Y-84720
X148030Y-86770
X148430Y-139520
X148460Y-141650
X148840Y-146990
X148990Y-156930
X149025Y-137370
X149270Y-100880
X150280Y-148387
X150280Y-151777
X150280Y-153708
X150280Y-155640
X150290Y-150107
X150400Y-136220
X152080Y-118370
X152280Y-99545
X153505Y-119495
X154960Y-85780
X156040Y-84160
X157055Y-97270
X157105Y-99495
X157705Y-101045
X157830Y-105595
X159730Y-103345
T2
X100420Y-134585
X100420Y-136035
X100420Y-137485
X101870Y-134585
X101870Y-136035
X101870Y-137485
X103320Y-134585
X103320Y-136035
X103320Y-137485
T3
X51085Y-70090
X51130Y-185515
X52030Y-67809
X52030Y-72370
X52074Y-183235
X52074Y-187795
X54310Y-66865
X54310Y-73315
X54355Y-182290
X54355Y-188740
X56590Y-67809
X56590Y-72370
X56635Y-183235
X56635Y-187795
X57535Y-70090
X57580Y-185515
X152774Y-185745
X152780Y-70095
X153719Y-183465
X153719Y-188026
X153724Y-67815
X153724Y-72375
X155999Y-182520
X155999Y-188970
X156005Y-66870
X156005Y-73320
X158280Y-183465
X158280Y-188026
X158285Y-67815
X158285Y-72375
X159224Y-185745
X159230Y-70095
T6
X84780Y-82720
X84780Y-85260
X84780Y-87800
X84780Y-90340
X92325Y-80345
X92340Y-72280
X92340Y-74820
X94865Y-80345
X94880Y-72280
X94880Y-74820
X97405Y-80345
X97420Y-72280
X97420Y-74820
X99945Y-80345
X99960Y-72280
X99960Y-74820
X102485Y-80345
X102500Y-72280
X102500Y-74820
X105025Y-80345
X105040Y-72280
X105040Y-74820
X107565Y-80345
X107580Y-72280
X107580Y-74820
X110105Y-80345
X110120Y-72280
X110120Y-74820
X112645Y-80345
X112660Y-72280
X112660Y-74820
X115185Y-80345
X115200Y-72280
X115200Y-74820
X122030Y-108730
X122030Y-111270
X122030Y-113810
X122030Y-116350
X122030Y-118890
X122030Y-121430
X130680Y-95635
X130680Y-98175
X130680Y-100715
X130680Y-103255
X130680Y-105795
X130680Y-108335
X130680Y-110875
X130680Y-113415
X130680Y-115955
X130680Y-118495
T7
X55505Y-82345
X55505Y-87345
X55505Y-92345
X55505Y-105095
X55505Y-110095
X55505Y-115095
X55505Y-128795
X55505Y-133795
X55505Y-138795
X55505Y-152495
X55505Y-157495
X55505Y-162495
T8
X70250Y-169895
X70250Y-176245
X70250Y-182595
X86480Y-169895
X86480Y-176245
X86480Y-182595
X101100Y-169745
X101100Y-176095
X101100Y-182445
X117330Y-169745
X117330Y-176095
X117330Y-182445
X125350Y-169770
X125350Y-176120
X125350Y-182470
X141580Y-169770
X141580Y-176120
X141580Y-182470
T9
X54310Y-70090
X54355Y-185515
X155999Y-185745
X156005Y-70095
T4
G00X157635Y-83040
M15
G01X157235Y-83040
M16
G05
G00X157635Y-87880
M15
G01X157235Y-87880
M16
G05
T5
G00X160685Y-82730
M15
G01X160185Y-82730
M16
G05
G00X160685Y-88190
M15
G01X160185Y-88190
M16
G05
T6
G00X151690Y-104300
M15
G01X151690Y-102300
M16
G05
G00X155690Y-98600
M15
G01X153690Y-98600
M16
G05
G00X157690Y-104300
M15
G01X157690Y-102300
M16
G05
M30
