%TF.GenerationSoftware,KiCad,Pcbnew,8.0.5*%
%TF.CreationDate,2024-11-23T22:59:17+07:00*%
%TF.ProjectId,Audio Processor V4,41756469-6f20-4507-926f-636573736f72,rev?*%
%TF.SameCoordinates,Original*%
%TF.FileFunction,Soldermask,Bot*%
%TF.FilePolarity,Negative*%
%FSLAX46Y46*%
G04 Gerber Fmt 4.6, Leading zero omitted, Abs format (unit mm)*
G04 Created by KiCad (PCBNEW 8.0.5) date 2024-11-23 22:59:17*
%MOMM*%
%LPD*%
G01*
G04 APERTURE LIST*
G04 Aperture macros list*
%AMRoundRect*
0 Rectangle with rounded corners*
0 $1 Rounding radius*
0 $2 $3 $4 $5 $6 $7 $8 $9 X,Y pos of 4 corners*
0 Add a 4 corners polygon primitive as box body*
4,1,4,$2,$3,$4,$5,$6,$7,$8,$9,$2,$3,0*
0 Add four circle primitives for the rounded corners*
1,1,$1+$1,$2,$3*
1,1,$1+$1,$4,$5*
1,1,$1+$1,$6,$7*
1,1,$1+$1,$8,$9*
0 Add four rect primitives between the rounded corners*
20,1,$1+$1,$2,$3,$4,$5,0*
20,1,$1+$1,$4,$5,$6,$7,0*
20,1,$1+$1,$6,$7,$8,$9,0*
20,1,$1+$1,$8,$9,$2,$3,0*%
G04 Aperture macros list end*
%ADD10R,1.700000X1.700000*%
%ADD11O,1.700000X1.700000*%
%ADD12C,0.900000*%
%ADD13C,8.600000*%
%ADD14R,3.000000X3.000000*%
%ADD15C,3.000000*%
%ADD16R,3.500000X3.500000*%
%ADD17RoundRect,0.750000X0.750000X1.000000X-0.750000X1.000000X-0.750000X-1.000000X0.750000X-1.000000X0*%
%ADD18RoundRect,0.875000X0.875000X0.875000X-0.875000X0.875000X-0.875000X-0.875000X0.875000X-0.875000X0*%
%ADD19O,1.700000X1.350000*%
%ADD20O,1.500000X1.100000*%
%ADD21RoundRect,0.200000X-0.275000X0.200000X-0.275000X-0.200000X0.275000X-0.200000X0.275000X0.200000X0*%
%ADD22RoundRect,0.250000X-0.650000X1.000000X-0.650000X-1.000000X0.650000X-1.000000X0.650000X1.000000X0*%
%ADD23RoundRect,0.135000X-0.135000X-0.185000X0.135000X-0.185000X0.135000X0.185000X-0.135000X0.185000X0*%
%ADD24RoundRect,0.140000X-0.170000X0.140000X-0.170000X-0.140000X0.170000X-0.140000X0.170000X0.140000X0*%
G04 APERTURE END LIST*
D10*
%TO.C,J2*%
X122029581Y-121430000D03*
D11*
X122029581Y-118890000D03*
X122029581Y-116350000D03*
X122029581Y-113810000D03*
X122029581Y-111270000D03*
X122029581Y-108730000D03*
%TD*%
D12*
%TO.C,H2*%
X152779581Y-70095000D03*
X153724162Y-67814581D03*
X153724162Y-72375419D03*
X156004581Y-66870000D03*
D13*
X156004581Y-70095000D03*
D12*
X156004581Y-73320000D03*
X158285000Y-67814581D03*
X158285000Y-72375419D03*
X159229581Y-70095000D03*
%TD*%
D14*
%TO.C,RV3*%
X55504581Y-128795000D03*
D15*
X55504581Y-133795000D03*
X55504581Y-138795000D03*
%TD*%
D12*
%TO.C,H1*%
X51129562Y-185515000D03*
X52074143Y-183234581D03*
X52074143Y-187795419D03*
X54354562Y-182290000D03*
D13*
X54354562Y-185515000D03*
D12*
X54354562Y-188740000D03*
X56634981Y-183234581D03*
X56634981Y-187795419D03*
X57579562Y-185515000D03*
%TD*%
%TO.C,H3*%
X152774143Y-185745419D03*
X153718724Y-183465000D03*
X153718724Y-188025838D03*
X155999143Y-182520419D03*
D13*
X155999143Y-185745419D03*
D12*
X155999143Y-188970419D03*
X158279562Y-183465000D03*
X158279562Y-188025838D03*
X159224143Y-185745419D03*
%TD*%
D15*
%TO.C,IN_JACK1*%
X86479581Y-176245000D03*
X70249581Y-176245000D03*
X86479581Y-182595000D03*
X70249581Y-182595000D03*
X86479581Y-169895000D03*
X70249581Y-169895000D03*
%TD*%
%TO.C,OUT_JACK_R1*%
X141579581Y-176120000D03*
X125349581Y-176120000D03*
X141579581Y-182470000D03*
X125349581Y-182470000D03*
X141579581Y-169770000D03*
X125349581Y-169770000D03*
%TD*%
D14*
%TO.C,RV2*%
X55504581Y-105095000D03*
D15*
X55504581Y-110095000D03*
X55504581Y-115095000D03*
%TD*%
D10*
%TO.C,J7*%
X115184581Y-80345000D03*
D11*
X112644581Y-80345000D03*
X110104581Y-80345000D03*
X107564581Y-80345000D03*
X105024581Y-80345000D03*
X102484581Y-80345000D03*
X99944581Y-80345000D03*
X97404581Y-80345000D03*
X94864581Y-80345000D03*
X92324581Y-80345000D03*
%TD*%
D10*
%TO.C,J6*%
X84779581Y-82720000D03*
D11*
X84779581Y-85260000D03*
X84779581Y-87800000D03*
X84779581Y-90340000D03*
%TD*%
D14*
%TO.C,RV4*%
X55504581Y-152495000D03*
D15*
X55504581Y-157495000D03*
X55504581Y-162495000D03*
%TD*%
D12*
%TO.C,H4*%
X51085000Y-70089581D03*
X52029581Y-67809162D03*
X52029581Y-72370000D03*
X54310000Y-66864581D03*
D13*
X54310000Y-70089581D03*
D12*
X54310000Y-73314581D03*
X56590419Y-67809162D03*
X56590419Y-72370000D03*
X57535000Y-70089581D03*
%TD*%
D14*
%TO.C,RV1*%
X55504581Y-82345000D03*
D15*
X55504581Y-87345000D03*
X55504581Y-92345000D03*
%TD*%
D16*
%TO.C,J1*%
X151689581Y-103300000D03*
D17*
X157689581Y-103300000D03*
D18*
X154689581Y-98600000D03*
%TD*%
D10*
%TO.C,STLINK-CON1*%
X115199581Y-72280000D03*
D11*
X115199581Y-74820000D03*
X112659581Y-72280000D03*
X112659581Y-74820000D03*
X110119581Y-72280000D03*
X110119581Y-74820000D03*
X107579581Y-72280000D03*
X107579581Y-74820000D03*
X105039581Y-72280000D03*
X105039581Y-74820000D03*
X102499581Y-72280000D03*
X102499581Y-74820000D03*
X99959581Y-72280000D03*
X99959581Y-74820000D03*
X97419581Y-72280000D03*
X97419581Y-74820000D03*
X94879581Y-72280000D03*
X94879581Y-74820000D03*
X92339581Y-72280000D03*
X92339581Y-74820000D03*
%TD*%
D10*
%TO.C,J5*%
X130679581Y-118495000D03*
D11*
X130679581Y-115955000D03*
X130679581Y-113415000D03*
X130679581Y-110875000D03*
X130679581Y-108335000D03*
X130679581Y-105795000D03*
X130679581Y-103255000D03*
X130679581Y-100715000D03*
X130679581Y-98175000D03*
X130679581Y-95635000D03*
%TD*%
D15*
%TO.C,OUT_JACK_L1*%
X117329581Y-176095000D03*
X101099581Y-176095000D03*
X117329581Y-182445000D03*
X101099581Y-182445000D03*
X117329581Y-169745000D03*
X101099581Y-169745000D03*
%TD*%
D19*
%TO.C,J4*%
X160434581Y-88190000D03*
D20*
X157434581Y-87880000D03*
X157434581Y-83040000D03*
D19*
X160434581Y-82730000D03*
%TD*%
D21*
%TO.C,R5*%
X107754581Y-112120000D03*
X107754581Y-113770000D03*
%TD*%
D22*
%TO.C,D13*%
X146129581Y-169095000D03*
X146129581Y-173095000D03*
%TD*%
D23*
%TO.C,R14*%
X99094581Y-127520000D03*
X100114581Y-127520000D03*
%TD*%
D22*
%TO.C,D14*%
X96179581Y-170270000D03*
X96179581Y-174270000D03*
%TD*%
%TO.C,D11*%
X91179581Y-170370000D03*
X91179581Y-174370000D03*
%TD*%
D24*
%TO.C,C5*%
X94804581Y-111190000D03*
X94804581Y-112150000D03*
%TD*%
D21*
%TO.C,R6*%
X109529581Y-112120000D03*
X109529581Y-113770000D03*
%TD*%
M02*
